<svg width="43" height="42" viewBox="0 0 43 42" fill="none" xmlns="http://www.w3.org/2000/svg">
<path d="M35.9401 12.4317C34.992 11.4971 33.7254 10.9405 32.3844 10.8689C32.3114 9.55129 31.7449 8.30681 30.794 7.37505L25.6443 2.31665C24.6206 1.31102 23.2323 0.746094 21.7847 0.746094C20.3372 0.746094 18.9489 1.31102 17.9252 2.31665L12.7791 7.37505C11.828 8.30671 11.2615 9.55125 11.1887 10.8689C9.89485 10.9404 8.62288 11.4607 7.63297 12.4317L2.48506 17.4918C1.46164 18.4978 0.886719 19.8619 0.886719 21.2843C0.886719 22.7067 1.46164 24.0708 2.48506 25.0768L7.63297 30.1352C8.58122 31.0695 9.84773 31.6262 11.1887 31.6979C11.2614 32.9692 11.791 34.2191 12.7791 35.1918L17.927 40.2502C18.9507 41.2558 20.339 41.8207 21.7865 41.8207C23.2341 41.8207 24.6224 41.2558 25.6461 40.2502L30.794 35.1918C31.7449 34.26 32.3114 33.0155 32.3844 31.6979C33.7253 31.6262 34.9919 31.0695 35.9401 30.1352L41.088 25.0768C42.1114 24.0708 42.6864 22.7067 42.6864 21.2843C42.6864 19.8619 42.1114 18.4978 41.088 17.4918L35.9401 12.4317ZM15.3539 9.90335L20.5 4.84674C20.8413 4.51153 21.304 4.32322 21.7865 4.32322C22.2691 4.32322 22.7318 4.51153 23.0731 4.84674L28.221 9.90335C28.5621 10.2387 28.7538 10.6934 28.7538 11.1675C28.7538 11.6416 28.5621 12.0963 28.221 12.4317L24.1412 16.4405C23.406 16.0953 22.6013 15.9169 21.7865 15.9184C20.9724 15.9172 20.1683 16.0956 19.4337 16.4405L15.3521 12.4317C15.011 12.0963 14.8193 11.6416 14.8193 11.1675C14.8193 10.6934 15.011 10.2387 15.3521 9.90335M26.7124 23.5963C27.0527 22.8953 27.2438 22.1122 27.2438 21.2825C27.245 20.4825 27.0634 19.6924 26.7124 18.9706L30.7922 14.96C31.1334 14.6248 31.5962 14.4364 32.0787 14.4364C32.5612 14.4364 33.024 14.6248 33.3652 14.96L38.5113 20.0184C38.8525 20.3537 39.0441 20.8084 39.0441 21.2825C39.0441 21.7566 38.8525 22.2114 38.5113 22.5467L33.3652 27.6051C33.024 27.9403 32.5612 28.1286 32.0787 28.1286C31.5962 28.1286 31.1334 27.9403 30.7922 27.6051L26.7124 23.5963ZM19.4319 26.1246C20.1667 26.4699 20.971 26.6492 21.7856 26.6492C22.6002 26.6492 23.4045 26.4699 24.1394 26.1246L28.2192 30.1334C28.5603 30.4687 28.7519 30.9234 28.7519 31.3975C28.7519 31.8717 28.5603 32.3264 28.2192 32.6617L23.0712 37.7183C22.73 38.0535 22.2672 38.2418 21.7847 38.2418C21.3022 38.2418 20.8394 38.0535 20.4982 37.7183L15.3521 32.6617C15.011 32.3264 14.8193 31.8717 14.8193 31.3975C14.8193 30.9234 15.011 30.4687 15.3521 30.1334L19.4319 26.1246ZM16.857 18.9706C16.5055 19.6927 16.3231 20.483 16.3231 21.2834C16.3231 22.0839 16.5055 22.8741 16.857 23.5963L12.7772 27.6051C12.436 27.9403 11.9732 28.1286 11.4907 28.1286C11.0082 28.1286 10.5454 27.9403 10.2042 27.6051L5.05811 22.5467C4.71697 22.2114 4.52533 21.7566 4.52533 21.2825C4.52533 20.8084 4.71697 20.3537 5.05811 20.0184L10.2042 14.9618C10.5454 14.6265 11.0082 14.4382 11.4907 14.4382C11.9732 14.4382 12.436 14.6265 12.7772 14.9618L16.857 18.9706Z" fill="#27AAE2"/>
</svg>
